<?xml version="1.0" encoding="UTF-8" standalone="no" ?>
<!DOCTYPE svg PUBLIC "-//W3C//DTD SVG 1.1//EN" "http://www.w3.org/Graphics/SVG/1.1/DTD/svg11.dtd">
<svg xmlns="http://www.w3.org/2000/svg" xmlns:xlink="http://www.w3.org/1999/xlink" version="1.1" width="200" height="200" viewBox="0 0 200 200" xml:space="preserve">
<desc>Created with Fabric.js 5.2.4</desc>
<defs>
</defs>
<g transform="matrix(0 0 0 0 0 0)" id="5a4b3547-ed6b-45df-abbd-08bc20be2acf"  >
</g>
<g transform="matrix(1 0 0 1 100 100)" id="a4d554e0-77e9-4c98-a9b8-0d544ea7b2c6"  >
<rect style="stroke: none; stroke-width: 1; stroke-dasharray: none; stroke-linecap: butt; stroke-dashoffset: 0; stroke-linejoin: miter; stroke-miterlimit: 4; fill: rgb(255,255,255); fill-rule: nonzero; opacity: 1; visibility: hidden;" vector-effect="non-scaling-stroke"  x="-100" y="-100" rx="0" ry="0" width="200" height="200" />
</g>
<g transform="matrix(10.83 0 0 10.83 100 100)"  >
<path style="stroke: lime; stroke-width: 3; fill: black;" 
      shape-rendering="geometricPrecision"
      vector-effect="non-scaling-stroke"
      transform="translate(-12, -12)" 
      d="M 8 12 L 8.01 12 M 12 12 L 12.01 12 M 16 12 L 16.01 12 M 21.0039 12 C 21.0039 16.9706 16.9745 21 12.0039 21 C 9.9675 21 3.00463 21 3.00463 21 C 3.00463 21 4.56382 17.2561 3.93982 16.0008 C 3.34076 14.7956 3.00391 13.4372 3.00391 12 C 3.00391 7.02944 7.03334 3 12.0039 3 C 16.9745 3 21.0039 7.02944 21.0039 12 Z" 
      stroke-linecap="round" />
</g>
<g transform="matrix(0.45 0 0 0.45 94.31 101.86)"  >
<path style="stroke: rgb(0,0,0); stroke-width: 0; stroke-dasharray: none; stroke-linecap: butt; stroke-dashoffset: 0; stroke-linejoin: miter; stroke-miterlimit: 4; fill: rgb(255,255,255); fill-rule: nonzero; opacity: 1;" vector-effect="non-scaling-stroke"  transform=" translate(-172.94, -172.94)" d="M 286.841 321.622 C 287.265 321.142 287.408 320.54200000000003 287.246 319.934 C 286.363 316.62100000000004 274.43399999999997 312.25 249.32 303.744 C 233.15099999999998 298.26700000000005 216.433 292.605 210.607 288.711 C 208.341 287.197 200.987 278.23900000000003 195.079 271.04200000000003 C 190.34900000000002 265.28000000000003 187.114 261.36300000000006 185.41 259.66600000000005 C 185.957 259.53600000000006 186.66899999999998 259.39200000000005 187.368 259.25000000000006 C 192.911 258.12700000000007 205.893 255.49800000000005 223.29399999999998 244.98200000000006 C 244.83599999999998 231.96200000000005 266.246 211.23200000000006 286.929 183.36600000000004 C 330.09099999999995 125.21500000000003 325.53299999999996 94.70200000000004 323.58599999999996 81.67300000000004 C 323.16499999999996 78.85500000000005 322.85999999999996 76.81900000000005 323.21199999999993 75.71200000000005 C 324.44699999999995 71.81800000000004 324.63499999999993 69.79800000000004 323.85999999999996 68.74000000000005 C 323.51199999999994 68.26500000000006 322.97599999999994 68.00400000000005 322.35099999999994 68.00400000000005 C 321.36199999999997 68.00400000000005 320.26199999999994 68.63100000000004 319.09799999999996 69.29600000000005 C 318.57699999999994 69.59300000000005 317.84299999999996 70.01200000000004 317.395 70.16700000000004 C 317.39799999999997 69.66000000000004 317.59999999999997 68.34900000000005 318.835 65.11500000000004 C 321.88 57.137000000000036 321.626 55.73000000000004 321.10499999999996 54.97300000000004 C 320.84499999999997 54.59600000000004 320.43199999999996 54.38000000000004 319.972 54.38000000000004 C 318.731 54.38000000000004 317.12899999999996 56.04100000000004 314.055 59.94100000000004 C 319.315 46.21400000000004 321.933 38.37400000000004 320.73900000000003 36.28500000000004 C 320.47200000000004 35.81800000000004 320.033 35.55000000000004 319.535 35.55000000000004 C 318.01500000000004 35.55000000000004 316.50300000000004 37.94600000000004 312.19300000000004 47.45300000000004 C 312.26700000000005 47.125000000000036 312.34100000000007 46.79400000000004 312.41700000000003 46.46100000000004 C 317.56 23.63200000000004 317.934 19.47800000000004 316.44500000000005 18.58500000000004 C 316.24300000000005 18.46300000000004 316.01200000000006 18.39900000000004 315.77900000000005 18.39900000000004 C 314.16 18.39900000000004 312.96700000000004 21.05900000000004 309.06700000000006 33.37700000000004 C 308.9510000000001 33.747000000000035 308.8310000000001 34.12600000000004 308.70900000000006 34.509000000000036 C 308.77900000000005 34.07500000000004 308.85100000000006 33.638000000000034 308.9220000000001 33.20300000000004 C 310.2790000000001 24.89100000000004 312.3310000000001 12.330000000000037 312.09100000000007 4.153000000000038 C 312.022 1.798 311.859 0 310.474 0 C 308.941 0 308.264 1.603 303.942 20.006 C 302.488 26.197 300.985 32.599000000000004 299.668 37.14 C 295.944 49.972 286.472 73.207 279.368 85.095 C 264.468 110.03 260.546 114.894 208.046 158.575 C 183.12099999999998 179.31199999999998 151.785 201.517 147.712 203.33599999999998 C 145.619 201.08499999999998 135.814 183.55899999999997 130.98999999999998 167.27999999999997 C 126.80799999999998 153.16699999999997 116.10699999999999 137.003 109.71499999999997 127.34499999999997 C 107.57499999999997 124.11299999999997 105.88499999999998 121.55999999999997 105.39699999999998 120.48599999999998 C 104.08899999999997 117.60799999999998 101.24599999999998 115.86499999999998 98.73599999999998 114.32799999999997 C 97.22999999999998 113.40499999999997 95.80699999999997 112.53399999999998 95.10199999999998 111.61999999999998 C 93.77599999999998 109.89999999999998 92.87799999999997 106.91099999999997 91.92699999999998 103.74499999999998 C 90.40499999999997 98.67699999999998 88.67999999999998 92.93199999999997 84.52099999999997 90.06099999999998 C 83.29399999999997 89.21399999999998 82.23699999999997 88.80299999999998 81.28699999999998 88.80299999999998 C 79.91599999999998 88.80299999999998 79.06599999999997 89.62499999999999 78.38399999999997 90.28499999999998 C 77.74699999999997 90.89999999999998 77.35799999999998 91.24899999999998 76.75299999999997 91.24899999999998 C 76.37799999999997 91.24899999999998 75.91499999999998 91.11299999999999 75.37999999999997 90.84499999999998 C 73.05899999999997 89.68399999999998 70.35499999999996 81.61799999999998 68.38099999999997 75.72799999999998 C 65.99799999999998 68.61799999999998 64.96399999999997 65.87799999999999 63.54499999999997 65.31999999999998 C 63.29599999999997 65.22199999999998 63.03999999999997 65.17299999999997 62.784999999999975 65.17299999999997 C 60.81799999999998 65.17299999999997 59.78099999999998 67.88199999999998 58.77799999999998 70.50299999999997 C 58.510999999999974 71.19899999999997 58.14599999999998 72.15199999999997 57.85099999999998 72.72699999999998 C 57.037999999999975 71.43499999999997 55.61799999999998 68.00199999999998 54.537999999999975 65.39299999999997 C 51.47599999999998 57.99399999999997 50.07099999999998 54.949999999999974 48.48399999999997 54.64599999999997 L 48.241999999999976 54.62299999999997 C 47.482999999999976 54.62299999999997 45.772999999999975 54.62199999999997 43.04599999999998 69.73199999999997 C 42.55199999999998 68.37899999999998 41.96099999999998 66.70099999999996 41.37999999999998 65.04899999999998 C 35.820999999999984 49.26199999999998 34.13399999999998 45.63199999999998 32.35299999999998 45.63199999999998 L 32.15599999999998 45.64699999999998 C 30.251999999999978 45.94299999999998 29.753999999999976 49.321999999999974 28.917999999999978 61.644999999999975 C 28.65999999999998 65.44799999999998 28.32599999999998 70.37199999999997 27.86599999999998 72.67699999999998 C 27.844999999999978 72.61999999999998 27.824999999999978 72.56099999999998 27.80299999999998 72.49799999999998 C 26.56899999999998 68.93499999999997 25.59999999999998 67.54599999999998 24.344999999999978 67.54599999999998 C 23.06399999999998 67.54599999999998 21.128999999999976 67.54599999999998 21.128999999999976 87.40499999999997 C 21.128999999999976 102.53299999999997 28.163999999999977 144.33599999999996 36.181999999999974 163.45199999999997 C 43.34999999999997 180.54599999999996 44.83599999999997 182.02499999999998 47.79899999999998 184.97199999999998 L 48.159999999999975 185.332 C 48.84099999999997 186.013 49.418999999999976 186.44 49.85899999999997 186.72299999999998 C 49.342999999999975 187.23899999999998 48.56999999999997 188.04299999999998 47.500999999999976 189.35799999999998 C 44.333999999999975 193.25599999999997 43.19899999999998 194.85899999999998 43.85599999999997 196.23799999999997 C 44.370999999999974 197.32099999999997 45.74399999999997 197.46999999999997 47.15199999999997 197.46999999999997 C 48.06499999999997 197.46999999999997 49.223999999999975 197.39999999999998 51.15199999999997 197.22899999999996 L 51.34199999999997 197.21199999999996 C 56.19999999999997 196.77699999999996 59.25699999999997 196.61499999999995 66.67899999999997 205.47899999999996 C 72.84299999999998 212.84099999999995 75.21799999999998 229.15399999999997 77.12499999999997 242.26199999999994 C 77.51499999999997 244.93999999999994 77.89099999999998 247.51999999999995 78.27899999999997 249.91999999999993 C 80.67999999999996 264.7289999999999 82.72299999999997 270.81999999999994 106.54299999999996 289.87499999999994 C 124.65599999999996 304.36499999999995 153.62199999999996 310.07899999999995 172.78899999999996 313.8589999999999 C 176.54099999999997 314.59899999999993 179.78799999999995 315.2389999999999 182.46399999999997 315.85299999999995 C 189.60899999999998 319.10299999999995 198.03299999999996 323.76599999999996 206.95199999999997 328.70099999999996 C 209.41599999999997 330.06499999999994 211.89999999999998 331.43999999999994 214.38099999999997 332.79699999999997 C 231.21299999999997 342.00699999999995 247.52199999999996 345.34999999999997 254.37699999999998 345.34999999999997 C 255.725 345.34999999999997 256.644 345.21799999999996 257.186 344.94699999999995 C 257.27099999999996 344.905 257.53999999999996 344.80499999999995 258.198 344.80499999999995 C 259.313 344.80499999999995 260.868 345.0799999999999 262.37199999999996 345.34599999999995 C 263.924 345.61999999999995 265.38999999999993 345.87899999999996 266.52199999999993 345.87899999999996 C 268.83899999999994 345.87899999999996 269.08899999999994 344.602 269.08899999999994 344.05199999999996 C 269.08899999999994 343.989 269.09599999999995 343.953 269.09299999999996 343.94699999999995 C 269.316 343.77199999999993 270.347 343.71399999999994 271.10299999999995 343.67099999999994 C 272.86099999999993 343.57199999999995 275.26699999999994 343.4359999999999 277.90099999999995 342.2199999999999 C 280.53999999999996 341.0019999999999 280.79299999999995 339.8239999999999 280.84899999999993 338.4109999999999 C 280.88999999999993 337.3599999999999 280.93799999999993 336.16899999999987 284.64899999999994 333.9519999999999 C 286.2459999999999 332.9979999999999 287.10699999999997 332.0629999999999 287.35799999999995 331.00799999999987 C 287.667 329.70999999999987 286.98999999999995 328.64099999999985 286.3349999999999 327.6079999999999 C 285.262 325.918 284.337 324.459 286.841 321.622 z" stroke-linecap="round" />
</g>
</svg>