<?xml version="1.0" encoding="iso-8859-1"?>
<!-- Generator: Adobe Illustrator 19.0.0, SVG Export Plug-In . SVG Version: 6.00 Build 0)  -->
<svg version="1.1" id="Layer_1" xmlns="http://www.w3.org/2000/svg" xmlns:xlink="http://www.w3.org/1999/xlink" x="0px" y="0px"
	 viewBox="0 0 512.002 512.002" style="enable-background:new 0 0 512.002 512.002;" xml:space="preserve">
<path style="fill:#2BA5F7;" d="M502.301,251.328c-0.584-0.013-1.168-0.026-1.752-0.026c-33.344,0-62.745,22.096-71.943,54.298
	c-15.764,55.232-56.4,95.778-105.664,114.02c-40.208,14.895-86.176,14.934-129.044-4.022l-10.159-4.489
	c-67.052,13.104-95.531,64.626-95.531,64.626c-89.2-36.718-78.028-119.988-78.028-119.988
	c52.741,11.534,105.885-11.015,122.557-19.085c0.999-0.493,1.881-0.921,2.608-1.297c1.038-0.519,1.79-0.921,2.245-1.155
	c0.324-0.182,0.493-0.272,0.493-0.272C34.921,271.918,16.9,193.215,23.127,132.313c5.67-55.388,31.411-96.05,31.411-96.05
	C72.845,62.9,97.173,79.87,123.16,91.612c47.889,21.615,101.396,25.521,133.079,39.52c48.862,21.603,77.419,82.686,77.419,82.686
	c0.091-0.078,0.169-0.156,0.259-0.221c39.481-34.966,68.453-38.846,88.304-32.722c23.678,7.305,34.356,28.855,34.356,28.855
	C470.202,244.97,502.301,251.328,502.301,251.328z"/>
<g>
	<path style="fill:#0F8DD3;" d="M294.943,314.734c0.869,53.792-78.872,45.333-162.207,21.927c0.999-0.493,1.881-0.921,2.608-1.297
		c1.038-0.519,1.79-0.921,2.245-1.155c0.324-0.182,0.493-0.272,0.493-0.272C34.921,271.918,16.9,193.215,23.127,132.313
		C47.532,138.917,293.23,208.019,294.943,314.734z"/>
	<path style="fill:#0F8DD3;" d="M437.051,188.108c0,0-56.477-9.605-82.802,66.153l-20.331-40.662
		C373.399,178.632,417.2,174.61,437.051,188.108z"/>
	<path style="fill:#0F8DD3;" d="M322.941,419.62c-40.208,14.895-86.176,14.934-129.044-4.022l-10.159-4.489
		c-67.052,13.104-95.531,64.626-95.531,64.626c-89.2-36.718-78.028-119.988-78.028-119.988
		c55.92,12.222,112.281-13.857,125.165-20.383l18.904,6.176C154.247,341.539,225.088,414.209,322.941,419.62z"/>
</g>
<path style="fill:#FFFFFF;" d="M304.289,237.288c-3.66,0-7.167-2.076-8.821-5.61c-7.135-15.257-30.281-50.479-56.285-61.974
	c-10.363-4.581-27.18-8.457-44.985-12.559c-5.238-1.207-8.505-6.43-7.298-11.668c1.208-5.237,6.43-8.501,11.667-7.298
	c18.733,4.317,36.427,8.393,48.484,13.724c33.706,14.901,59.104,56.687,66.045,71.53c2.277,4.868,0.176,10.66-4.692,12.937
	C307.074,236.994,305.67,237.288,304.289,237.288z"/>
<g>
	<path style="fill:#333333;" d="M504.249,241.793c-1.105-0.234-27.184-6.053-38.602-35.567c-0.106-0.274-0.226-0.544-0.355-0.807
		c-0.589-1.191-14.819-29.26-46.703-35.475c-24.718-4.819-52.244,4.815-81.971,28.639c-11.079-19.462-37.442-59.1-76.449-76.346
		c-14.88-6.579-34.036-10.993-54.316-15.665C157.575,95.447,97.493,81.602,62.563,30.755c-1.853-2.696-4.92-4.288-8.204-4.219
		c-3.27,0.061-6.29,1.762-8.038,4.525c-2.04,3.22-49.674,79.879-28.763,168.157c12.375,52.239,46.092,97.054,100.324,133.417
		c-21.99,9.13-64.23,22.644-105.63,13.606c-2.656-0.579-5.432-0.023-7.66,1.539c-2.226,1.561-3.699,3.981-4.06,6.675
		c-0.126,0.941-2.985,23.341,5.968,50.556c8.265,25.12,28.506,59.343,78.004,79.722c1.208,0.497,2.463,0.734,3.702,0.734
		c3.449,0,6.76-1.841,8.52-5.025c0.258-0.468,26.147-46.188,85.931-59.169l7.299,3.228c48.048,21.244,102.891,20.641,150.465-1.653
		c47.572-22.295,83.124-64.056,97.542-114.576c8.131-28.488,34.447-47.908,64.112-47.217c4.996,0.087,9.279-3.62,9.861-8.611
		C512.515,247.45,509.167,242.831,504.249,241.793z M419.25,302.93c-12.872,45.104-44.614,82.389-87.086,102.295
		c-42.475,19.905-91.439,20.444-134.336,1.476c0,0-25.036-12.07-36.531-22.651c-3.955-3.639-10.111-3.384-13.75,0.57
		c-3.639,3.953-3.384,10.11,0.57,13.75c3.746,3.449,7.656,6.548,11.395,9.256c-41.607,14.547-65.432,42.421-74.955,55.862
		c-29.848-14.114-49.78-35.541-59.312-63.786c-4.336-12.85-5.534-24.548-5.737-32.43c53.036,7.235,103.137-14.739,118.55-22.371
		c11.892,5.929,44.179,20.222,79.033,20.222c8.056,0,16.251-0.764,24.36-2.572c5.246-1.169,8.55-6.369,7.38-11.615
		c-1.168-5.246-6.364-8.551-11.615-7.381c-43.027,9.588-91.881-16.742-94.25-18.041c-1.591-0.958-3.159-1.923-4.716-2.893
		c2.478-0.641,4.898-1.382,7.128-2.246c5.012-1.94,7.503-7.574,5.565-12.587s-7.573-7.504-12.587-5.565
		c-6.717,2.599-17.167,3.96-23.318,4.506c-10.714-8.065-20.414-16.515-29.084-25.34c5.562-0.012,11.558-0.544,17.578-1.976
		c5.227-1.244,8.458-6.491,7.214-11.719c-1.243-5.227-6.482-8.458-11.719-7.215c-12.829,3.053-26.116,0.571-31.755-0.797
		c-8.253-11.044-15.08-22.591-20.469-34.624c8.191,2.286,18.093,4.147,28.653,4.147c2.038,0,4.104-0.069,6.185-0.218
		c5.36-0.384,9.394-5.041,9.009-10.402c-0.383-5.36-5.016-9.392-10.402-9.011c-17.709,1.271-34.568-4.923-42.006-8.16
		c-0.603-2.154-1.181-4.317-1.7-6.498c-2.656-11.154-4.067-22.158-4.54-32.842c12.853,7.394,32.027,16.448,51.349,18.28
		c0.313,0.03,0.621,0.044,0.93,0.044c4.96,0,9.199-3.776,9.676-8.812c0.507-5.351-3.419-10.098-8.769-10.607
		c-21.285-2.018-43.685-15.503-52.832-21.575c0.929-12.629,2.998-24.557,5.645-35.464c10.435,9.466,27.826,22.402,54.306,34.109
		c1.279,0.566,2.616,0.834,3.93,0.834c3.735,0,7.297-2.163,8.904-5.798c2.173-4.915-0.049-10.661-4.964-12.834
		c-32.448-14.346-49.548-30.503-55.981-37.559c4.007-11.741,8.3-21.487,11.75-28.541c39.542,46.955,97.917,60.408,145.536,71.38
		c19.353,4.459,37.631,8.671,50.817,14.502c44.863,19.835,72.283,77.328,72.551,77.899c0.022,0.047,0.052,0.09,0.074,0.136
		c0.025,0.051,0.043,0.104,0.069,0.154l20.587,40.447c1.718,3.376,5.135,5.32,8.679,5.32c1.486,0,2.993-0.341,4.406-1.061
		c4.789-2.438,6.695-8.297,4.257-13.086l-17.121-33.638c26.131-21.765,49.268-30.918,68.846-27.204
		c20.978,3.979,31.707,22.323,33.058,24.78c6.025,15.275,15.098,25.745,24.03,32.854C446.789,255.694,426.863,276.248,419.25,302.93
		z"/>
	<circle style="fill:#333333;" cx="409.111" cy="230.077" r="9.731"/>
</g>
<circle style="fill:#FFFFFF;" cx="163.894" cy="141.461" r="9.731"/>
<g>
</g>
<g>
</g>
<g>
</g>
<g>
</g>
<g>
</g>
<g>
</g>
<g>
</g>
<g>
</g>
<g>
</g>
<g>
</g>
<g>
</g>
<g>
</g>
<g>
</g>
<g>
</g>
<g>
</g>
</svg>
